<svg xmlns="http://www.w3.org/2000/svg" version="1.1" xmlns:xlink="http://www.w3.org/1999/xlink" xmlns:svgjs="http://svgjs.com/svgjs" width="512" height="512" x="0" y="0" viewBox="0 0 512 512" style="enable-background:new 0 0 512 512" xml:space="preserve" class=""><g><g xmlns="http://www.w3.org/2000/svg"><path d="m4.479 256.847 39.634 22.883c3.975 2.295 8.806 1.457 11.803-1.571l29.606 17.093c-6.103 19.388 7.304 39.281 27.465 41.037-4.443 16.685 5.335 34.128 22.382 38.696 4.585 1.229 9.402 1.443 14.155.527-1.819 18.608 12.85 34.663 31.531 34.663 5.749 0 11.244-1.588 15.768-4.234.896 16.626 14.681 29.874 31.636 29.874 5.363 0 10.795-1.363 15.764-4.232 6.832-3.944 7.511-4.275 9.248-5.529l17.667 10.2c7.487 4.323 16.563 5.445 24.898 3.127 14.409-4.007 23.467-17.023 22.964-31.242 15.062 8.209 34.749 3.283 43.309-12.216 2.925-5.296 4.15-11.112 3.856-16.798 6.421 2.401 13.348 2.654 19.974.666 17.048-5.12 26.986-23.836 20.317-41.582 8.683-1.689 16.622-6.982 21.381-15.226.075-.13.146-.262.213-.396 4.542-9.083 4.366-19.604.4-28.475l27.632-15.953c3.006 3.037 7.839 3.86 11.802 1.572l39.633-22.882c2.764-1.595 4.481-4.568 4.481-7.759v-168.686c0-6.88-7.471-11.2-13.437-7.758l-112.678 65.055c-4.01 2.315-5.653 6.941-4.541 11.007l-29.872 17.247c-2.416 1.396-4.009 3.676-4.608 6.199-10.052 5.701-22.481 5.661-32.499-.123l-33.081-19.099c-14.903-8.604-33.419-8.605-48.323 0l-45.339 26.176c-7.876-.52-15.284-2.802-22.487-6.952-.598-2.523-2.192-4.805-4.61-6.202l-29.871-17.246c1.11-4.058-.524-8.689-4.54-11.007l-34.183-19.735c-3.587-2.072-8.174-.842-10.245 2.745s-.842 8.174 2.745 10.245l29.641 17.113-66.997 116.049-32.073-18.517v-154.732l38.486 22.22c3.586 2.071 8.174.842 10.245-2.745s.842-8.174-2.745-10.245l-47.55-27.454c-5.958-3.438-13.436.873-13.436 7.759v168.686c0 3.191 1.717 6.164 4.479 7.757zm96.803 56.252c-4.586-7.944-1.854-18.138 6.089-22.724l21.458-12.389c7.944-4.587 18.138-1.854 22.724 6.089s1.854 18.138-6.089 22.724c-20.234 11.682-.965.557-21.458 12.389-7.943 4.585-18.137 1.855-22.724-6.089zm37.97 47.398c-8.88-2.379-14.143-11.492-11.763-20.374 1.15-4.292 3.903-7.879 7.751-10.101 8.743-5.048 5.388-3.111 12.766-7.37 7.942-4.571 18.122-1.836 22.704 6.1 4.586 7.943 1.854 18.138-6.089 22.724l-12.747 7.359c-3.847 2.221-8.331 2.812-12.622 1.662zm27.345 26.368c-4.586-7.943-1.854-18.138 6.089-22.724l11.503-6.641c3.854-2.225 8.337-2.81 12.623-1.662 8.881 2.38 14.143 11.492 11.763 20.374-1.117 4.168-3.8 7.82-7.751 10.101l-11.503 6.642c-7.944 4.586-18.137 1.853-22.724-6.09zm76.653 27.962-6.526 3.768c-7.944 4.584-18.138 1.854-22.724-6.089-4.601-7.969-1.829-18.152 6.089-22.724l6.526-3.768c7.994-4.616 18.167-1.803 22.724 6.089 4.586 7.943 1.854 18.137-6.089 22.724zm145.317-252.968 33.115 57.355c2.072 3.587 6.659 4.817 10.245 2.745 3.587-2.071 4.816-6.658 2.745-10.245l-36.746-63.645 99.074-57.2v154.732l-32.073 18.517-12.41-21.495c-2.071-3.588-6.658-4.817-10.245-2.745-3.587 2.071-4.816 6.658-2.745 10.245l8.779 15.206-25.051 14.463-59.739-103.471zm-215.677 29.817c-11.651 18.189-2.13 42.156 18.419 47.662 8.162 2.187 16.688 1.065 24.004-3.16l46.742-26.979c.609-.352 1.365-.351 1.973 0l23.41 13.516c3.585 2.071 8.174.841 10.245-2.745 2.071-3.587.842-8.174-2.745-10.245l-23.409-13.515c-5.234-3.023-11.738-3.022-16.972-.001l-46.742 26.979c-7.945 4.587-18.138 1.854-22.724-6.089s-1.854-18.137 6.089-22.724c103.644-59.838 1.8-1.04 49.282-28.453 10.277-5.933 23.045-5.934 33.323 0l33.081 19.099c13.872 8.01 30.917 8.469 45.148 1.378l48.738 84.418-74.569-43.052c-3.587-2.072-8.175-.842-10.245 2.745-2.071 3.587-.842 8.174 2.745 10.245l88.785 51.26c7.97 4.601 11.264 15.392 7.267 23.664-4.638 7.794-14.73 10.444-22.61 5.895-1.15-.766 8.97 5.179-53.535-30.909-3.587-2.072-8.174-.843-10.245 2.745-2.071 3.587-.842 8.174 2.745 10.245.531.307 53.55 30.917 54.27 31.333 7.334 4.234 10.331 14.211 6.505 21.863-4.364 8.726-14.686 11.83-23.14 6.95l-18.281-10.554c-.004-.002-.008-.005-.012-.007l-35.978-20.772c-3.588-2.073-8.174-.842-10.245 2.745s-.842 8.174 2.745 10.245l35.978 20.772c7.795 4.5 10.598 14.568 6.249 22.442-4.511 8.166-15.274 10.765-23.354 6.1-1.222-.706-35.072-20.25-35.507-20.5-3.588-2.072-8.175-.842-10.245 2.745-2.071 3.587-.842 8.174 2.745 10.245l12.926 7.463c8.024 4.72 10.487 14.766 6.249 22.442-4.574 8.28-15.391 10.696-23.354 6.099l-15.343-8.858c4.499-9.158 4.506-20.323-.967-29.804-7.781-13.478-24.051-19.064-38.197-13.919-.691-18.443-17.399-32.973-36.405-30.066 1.742-15.261-7.733-29.494-22.409-33.855 4.689-9.228 4.775-20.574-.776-30.187-8.722-15.107-28.108-20.3-43.214-11.579l-10.082 5.821 48.712-84.372c4.12 2.197 8.46 3.949 12.93 5.229zm-84.145 88.117-25.051-14.463 59.739-103.471 25.051 14.463z" fill="#000000" data-original="#000000" class=""></path></g></g></svg>