<svg xmlns="http://www.w3.org/2000/svg" version="1.1" xmlns:xlink="http://www.w3.org/1999/xlink" xmlns:svgjs="http://svgjs.com/svgjs" width="512" height="512" x="0" y="0" viewBox="0 0 512 512" style="enable-background:new 0 0 512 512" xml:space="preserve" class=""><g><path xmlns="http://www.w3.org/2000/svg" d="m18.917969 512h45.730469c10.433593 0 18.921874-8.488281 18.921874-18.921875v-15.222656c0-9.179688-6.570312-16.84375-15.253906-18.558594v-38.828125h169.65625c4.132813 0 7.480469-3.351562 7.480469-7.484375s-3.347656-7.484375-7.480469-7.484375h-169.65625v-23.132812h374.234375v23.132812h-169.65625c-4.132812 0-7.484375 3.351562-7.484375 7.484375s3.351563 7.484375 7.484375 7.484375h169.65625v38.828125c-8.683593 1.714844-15.253906 9.378906-15.253906 18.554687v15.226563c0 10.433594 8.488281 18.921875 18.921875 18.921875h45.730469c10.429687 0 18.917969-8.488281 18.917969-18.921875v-15.226563c0-9.175781-6.570313-16.839843-15.25-18.554687v-189.242187c0-11.527344-9.378907-20.902344-20.902344-20.902344h-11.261719c-11.527344 0-20.902344 9.375-20.902344 20.902344v31.140624c-3.914062-2.074218-8.371093-3.253906-13.097656-3.253906h-231.300781c3.082031-4.90625 4.871094-10.703125 4.871094-16.910156 0-17.578125-14.296876-31.878906-31.875-31.878906h-85.917969c-6.210938 0-12.007813 1.792968-16.914063 4.875v-90.527344c0-11.527344-9.375-20.90625-20.902344-20.90625h-11.257812c-11.527344 0-20.902344 9.378906-20.902344 20.90625v295.796875c-8.683594 1.714844-15.253906 9.378906-15.253906 18.558594v15.222656c0 10.433594 8.484375 18.921875 18.917969 18.921875zm476.980469-18.921875c0 2.183594-1.773438 3.957031-3.953126 3.957031h-45.726562c-2.183594 0-3.953125-1.773437-3.953125-3.957031v-15.222656c0-2.183594 1.769531-3.953125 3.953125-3.953125h45.726562c2.179688 0 3.953126 1.769531 3.953126 3.953125zm-38.382813-223.023437c0-3.273438 2.664063-5.933594 5.9375-5.933594h11.257813c3.273437 0 5.9375 2.660156 5.9375 5.933594v188.878906h-23.132813c0-24.246094 0-182.28125 0-188.878906zm-14.964844 55.953124v41.394532h-374.234375v-41.394532c0-7.222656 5.878906-13.097656 13.101563-13.097656h348.03125c7.222656 0 13.101562 5.875 13.101562 13.097656zm-357.320312-61.886718h85.914062c9.328125 0 16.914063 7.585937 16.914063 16.910156s-7.589844 16.910156-16.914063 16.910156h-85.914062c-9.328125 0-16.914063-7.585937-16.914063-16.910156s7.589844-16.910156 16.914063-16.910156zm-55.011719-100.621094c0-3.273438 2.664062-5.9375 5.9375-5.9375h11.257812c3.273438 0 5.9375 2.664062 5.9375 5.9375v295.433594h-23.132812zm-15.253906 314.355469c0-2.183594 1.773437-3.953125 3.953125-3.953125h45.730469c2.179687 0 3.953124 1.769531 3.953124 3.953125v15.222656c0 2.183594-1.773437 3.957031-3.953124 3.957031h-45.730469c-2.179688 0-3.953125-1.773437-3.953125-3.957031zm0 0" fill="#000000" data-original="#000000"></path><path xmlns="http://www.w3.org/2000/svg" d="m242.066406 160.640625h26.734375c5.613281 0 10.183594-4.566406 10.183594-10.179687v-21.953126h21.949219c5.613281 0 10.179687-4.566406 10.179687-10.179687v-26.738281c0-5.613282-4.566406-10.179688-10.179687-10.179688h-21.949219v-21.953125c0-5.613281-4.570313-10.179687-10.183594-10.179687h-26.734375c-5.617187 0-10.183594 4.566406-10.183594 10.179687v21.953125h-21.949218c-5.613282 0-10.179688 4.566406-10.179688 10.179688v26.738281c0 5.613281 4.566406 10.179687 10.179688 10.179687h21.949218v21.953126c0 5.613281 4.566407 10.179687 10.183594 10.179687zm-27.347656-47.097656v-17.164063h21.949219c5.617187 0 10.183593-4.570312 10.183593-10.183594v-21.949218h17.164063v21.949218c0 5.613282 4.566406 10.183594 10.183594 10.183594h21.949219v17.164063h-21.949219c-5.617188 0-10.183594 4.566406-10.183594 10.179687v21.953125h-17.164063v-21.953125c0-5.613281-4.566406-10.179687-10.183593-10.179687zm0 0" fill="#000000" data-original="#000000"></path><path xmlns="http://www.w3.org/2000/svg" d="m343.984375 88.828125c.734375 4.070313 4.636719 6.773437 8.695313 6.035156 4.066406-.738281 6.765624-4.628906 6.03125-8.699219-9.03125-49.925781-52.464844-86.164062-103.277344-86.164062-57.875 0-104.960938 47.085938-104.960938 104.957031 0 57.875 47.085938 104.960938 104.960938 104.960938 50.8125 0 94.246094-36.238281 103.277344-86.164063.734374-4.070312-1.964844-7.960937-6.03125-8.699218-4.058594-.730469-7.960938 1.96875-8.695313 6.035156-7.742187 42.796875-44.980469 73.859375-88.550781 73.859375-49.621094 0-89.992188-40.367188-89.992188-89.992188 0-49.621093 40.371094-89.992187 89.992188-89.992187 43.570312 0 80.808594 31.066406 88.550781 73.863281zm0 0" fill="#000000" data-original="#000000"></path></g></svg>