<svg xmlns="http://www.w3.org/2000/svg" version="1.1" xmlns:xlink="http://www.w3.org/1999/xlink" xmlns:svgjs="http://svgjs.com/svgjs" width="512" height="512" x="0" y="0" viewBox="0 0 512 512" style="enable-background:new 0 0 512 512" xml:space="preserve" class=""><g><g xmlns="http://www.w3.org/2000/svg" id="outline"><g><path d="m496 180c0-15.4-12.6-28-28-28h-42.3l59.5-66.2c6.9-7.7 10.7-17.6 10.7-27.9 0-11.2-4.3-21.6-12.2-29.5-15.7-15.7-40.9-16.4-57.4-1.5l-139.4 125.1h-49.9c7.3-13.5 11-26.9 11-40 0-47.6-49.1-84.9-51.2-86.4-2.8-2.1-6.7-2.1-9.6 0-1.4 1-29.7 22.4-43.6 53.3-26.9-34.1-80.4-40.2-82.8-40.4-3.5-.4-6.9 1.6-8.2 4.9-1 2.4-24.3 59.5 0 100.4 1.7 2.8 3.6 5.6 5.7 8.2h-14.3c-15.4 0-28 12.6-28 28 0 11.1 6.5 20.8 16 25.3v42.7c0 73.9 36.1 142.5 96.8 184.4v55.6c0 4.4 3.6 8 8 8h238.3c4.4 0 8-3.6 8-8v-55.6c60.8-41.9 96.9-110.5 96.9-184.4v-42.7c9.5-4.5 16-14.2 16-25.3zm-59.1-141.2c10.2-9.2 25.7-8.7 35.4.9 4.9 4.9 7.5 11.3 7.5 18.2 0 6.4-2.3 12.5-6.6 17.2l-69 76.9h-93.3zm-244.9 3.5c11.6 10 40 37.8 40 69.7 0 12.8-4.6 26.2-13.7 40h-18.3v-72c0-4.4-3.6-8-8-8s-8 3.6-8 8v72h-18.3c-2.7-4.1-5.1-8.3-7-12.4-4.4-9.4-6.7-18.7-6.7-27.6 0-4.1.5-8.4 1.5-12.6 5.9-26.3 28.5-48.4 38.5-57.1zm-125.6 93.3c-16.2-27.3-6-65.8-1.1-80.3 15 2.7 53.7 12.2 69.9 39.5.7 1.2 1.4 2.5 2.1 3.8-.8 4.5-1.3 9-1.3 13.4 0 10.5 2.4 21.4 7.2 32.3-.3 2.5-.6 5.1-1.1 7.7h-13.3c.7-2.1.5-4.4-.7-6.5l-36.7-61.9c-2.3-3.8-7.2-5.1-11-2.8s-5.1 7.2-2.8 11l35.7 60.2h-32.4c-6-4.9-10.9-10.4-14.5-16.4zm300.8 344.4h-222.4v-48h222.3v48zm96.8-232c0 67-32 129.4-86.1 168.5-.9-.3-1.8-.5-2.8-.5h-238.3c-1 0-1.9.2-2.8.5-54-39.1-86-101.5-86-168.5v-40h416zm4-56h-424c-6.6 0-12-5.4-12-12s5.4-12 12-12h104.7 12.6 306.7c6.6 0 12 5.4 12 12s-5.4 12-12 12z" fill="#000000" data-original="#000000"></path><path d="m192 336h32v32c0 4.4 3.6 8 8 8h48c4.4 0 8-3.6 8-8v-32h32c4.4 0 8-3.6 8-8v-48c0-4.4-3.6-8-8-8h-32v-32c0-4.4-3.6-8-8-8h-48c-4.4 0-8 3.6-8 8v32h-32c-4.4 0-8 3.6-8 8v48c0 4.4 3.6 8 8 8zm8-48h32c4.4 0 8-3.6 8-8v-32h32v32c0 4.4 3.6 8 8 8h32v32h-32c-4.4 0-8 3.6-8 8v32h-32v-32c0-4.4-3.6-8-8-8h-32z" fill="#000000" data-original="#000000"></path></g></g></g></svg>