<svg xmlns="http://www.w3.org/2000/svg" version="1.1" xmlns:xlink="http://www.w3.org/1999/xlink" xmlns:svgjs="http://svgjs.com/svgjs" width="512" height="512" x="0" y="0" viewBox="0 0 64 64" style="enable-background:new 0 0 512 512" xml:space="preserve" class=""><g><g xmlns="http://www.w3.org/2000/svg" id="_20-palm_leaf" data-name="20-palm leaf"><path d="M48.012,31.241A6.958,6.958,0,0,0,53,24.536V23a1,1,0,0,0-1.287-.958L35.988,26.759A7,7,0,0,0,33,28.565V24.693l11.458-4.3A7.03,7.03,0,0,0,49,13.842V12a1,1,0,0,0-1.351-.937L35.542,15.6A6.947,6.947,0,0,0,33,17.278V15.4c1.013-1.072,4-4.481,4-7.4C37,4.682,33.146.732,32.707.293a1,1,0,0,0-1.414,0C30.854.732,27,4.682,27,8c0,2.923,2.987,6.332,4,7.4v1.874A6.947,6.947,0,0,0,28.458,15.6L16.351,11.063A1,1,0,0,0,15,12v1.842A7.03,7.03,0,0,0,19.542,20.4L31,24.693v3.873a6.992,6.992,0,0,0-2.989-1.807L12.287,22.042A1,1,0,0,0,11,23v1.536a6.957,6.957,0,0,0,4.989,6.7L31,35.744v4.822a6.992,6.992,0,0,0-2.989-1.807L12.287,34.042A1,1,0,0,0,11,35v1.536a6.957,6.957,0,0,0,4.989,6.7L31,47.744v4.822a6.992,6.992,0,0,0-2.989-1.807L12.287,46.042A1,1,0,0,0,11,47v1.536a6.957,6.957,0,0,0,4.989,6.7L31,59.744V63a1,1,0,0,0,2,0V59.744l15.012-4.5A6.958,6.958,0,0,0,53,48.536V47a1,1,0,0,0-1.287-.958L35.988,50.759A7,7,0,0,0,33,52.565V47.744l15.012-4.5A6.958,6.958,0,0,0,53,36.536V35a1,1,0,0,0-1.287-.958L35.988,38.759A7,7,0,0,0,33,40.565V35.744ZM36.563,28.675,51,24.344v.192a4.969,4.969,0,0,1-3.563,4.789L33,33.656v-.192A4.969,4.969,0,0,1,36.563,28.675Zm-.319-11.2L47,13.443v.4a5.022,5.022,0,0,1-3.244,4.681L33,22.557v-.4A5.022,5.022,0,0,1,36.244,17.477ZM32,2.47c1.216,1.39,3,3.8,3,5.53s-1.784,4.14-3,5.53c-1.216-1.39-3-3.8-3-5.53S30.784,3.86,32,2.47ZM17,13.842v-.4l10.756,4.034A5.022,5.022,0,0,1,31,22.158v.4L20.244,18.523A5.022,5.022,0,0,1,17,13.842ZM13,24.536v-.192l14.437,4.331A4.969,4.969,0,0,1,31,33.464v.192L16.563,29.325A4.969,4.969,0,0,1,13,24.536Zm0,12v-.192l14.437,4.331A4.969,4.969,0,0,1,31,45.464v.192L16.563,41.325A4.969,4.969,0,0,1,13,36.536Zm0,12v-.192l14.437,4.331A4.969,4.969,0,0,1,31,57.464v.192L16.563,53.325A4.969,4.969,0,0,1,13,48.536Zm23.563,4.139L51,48.344v.192a4.969,4.969,0,0,1-3.563,4.789L33,57.656v-.192A4.969,4.969,0,0,1,36.563,52.675Zm0-12L51,36.344v.192a4.969,4.969,0,0,1-3.563,4.789L33,45.656v-.192A4.969,4.969,0,0,1,36.563,40.675Z" fill="#000000" data-original="#000000" class=""></path></g></g></svg>