<svg xmlns="http://www.w3.org/2000/svg" version="1.1" xmlns:xlink="http://www.w3.org/1999/xlink" xmlns:svgjs="http://svgjs.com/svgjs" width="512" height="512" x="0" y="0" viewBox="0 0 512.003 512.003" style="enable-background:new 0 0 512 512" xml:space="preserve" class=""><g><g xmlns="http://www.w3.org/2000/svg"><path d="m261.174 399.067c0-15.21-12.374-27.584-27.584-27.584-15.209 0-27.583 12.374-27.583 27.584 0 15.209 12.374 27.583 27.583 27.583 15.21 0 27.584-12.374 27.584-27.583zm-40.168 0c0-6.939 5.645-12.584 12.583-12.584 6.939 0 12.584 5.645 12.584 12.584 0 6.938-5.645 12.583-12.584 12.583-6.938 0-12.583-5.645-12.583-12.583z" fill="#000000" data-original="#000000" class=""></path><path d="m427.539 331.315h-127.968c-4.143 0-7.5 3.358-7.5 7.5v17.589c-15.003-15.458-35.976-25.091-59.167-25.091h-.63c-29.151 0-55.821 15.216-70.719 40.008-16.495-1.636-29.422-15.59-29.422-32.508v-114.98c0-18.009 14.656-32.66 32.67-32.66h27.89c13.812 22.456 43.07 31.556 67.201 20.239l14.406 53.753c.897 3.351 3.928 5.561 7.239 5.561.643 0 20.401-5.202 20.401-5.202l11.054 41.256c.897 3.351 3.928 5.561 7.239 5.561.643 0 40.745-10.653 40.745-10.653 4.304-1.598 6.072-4.659 5.303-9.186l-11.055-41.256 15.549-4.166c4.001-1.072 6.375-5.185 5.303-9.186l-49.289-183.965c7.761-2.613 13.128-9.201 10.795-17.904l-6.772-25.277c-2.07-7.722-10.035-12.32-17.759-10.252l-102.873 27.564c-7.723 2.069-12.322 10.036-10.253 17.759l6.773 25.275c2.353 8.783 10.607 11.852 18.303 10.108l8.033 29.971c-17.003 1.468-31.721 11.038-40.258 24.829h-27.973c-48.435 0-87.84 39.4-87.84 87.83v35.21c0 4.142 3.358 7.5 7.5 7.5s7.5-3.358 7.5-7.5v-35.21c0-40.159 32.676-72.83 72.84-72.83h21.656c-2.05 8.389-2.061 16.779-.03 25.17h-21.626c-26.285 0-47.67 21.38-47.67 47.66v114.98c0 22.857 16.173 42 37.674 46.607-2.881 7.884-4.556 16.222-4.94 24.657-33.053-6.982-57.904-36.817-57.904-71.264v-47.08c0-4.142-3.358-7.5-7.5-7.5s-7.5 3.358-7.5 7.5v47.08c0 21.992 8.198 43.049 23.083 59.292 13.226 14.433 30.687 23.936 49.727 27.231v26.477h-37.75c-12.407 0-22.5 10.093-22.5 22.5v30.19c0 4.142 3.358 7.5 7.5 7.5h271.13c4.143 0 7.5-3.358 7.5-7.5v-30.19c0-12.407-10.094-22.5-22.5-22.5h-37.75v-25.162h41.121c8.012 0 14.529-6.518 14.529-14.529v-25.638h56.484c4.143 0 7.5-3.358 7.5-7.5v-40.167c0-4.143-3.357-7.501-7.5-7.501zm-101.997-35.663-9.113-34.01 24.31-6.514 9.113 34.01zm-110.997-253.232 101.907-27.306 6.514 24.31-101.907 27.305zm23.059 83.543c15.409 0 29.562 9.654 35.159 24.065 1.499 3.86 5.843 5.777 9.707 4.276 3.86-1.5 5.775-5.845 4.275-9.707-6.469-16.656-20.73-28.717-37.915-32.433l-9.339-34.844 72.81-19.509 47.348 176.719-72.802 19.508-13.782-51.425c6.025-5.474 10.708-12.269 13.672-19.906 1.498-3.861-.417-8.207-4.279-9.706-3.86-1.497-8.206.417-9.705 4.279-5.515 14.212-20.156 24.063-35.148 24.063-20.782 0-37.69-16.908-37.69-37.69s16.907-37.69 37.689-37.69zm-17.51 340.85h133.061c4.136 0 7.5 3.364 7.5 7.5v22.69h-256.13v-22.69c0-4.136 3.364-7.5 7.5-7.5h75.39c4.142 0 7.5-3.358 7.5-7.5s-3.358-7.5-7.5-7.5h-22.64v-38c0-37.029 31.249-67.679 68.13-67.5 37.22 0 67.5 30.28 67.5 67.5v38h-80.311c-4.142 0-7.5 3.358-7.5 7.5s3.358 7.5 7.5 7.5zm135.961-55.163h-40.705c-.228-8.798-1.832-17.256-4.618-25.167h45.323zm63.984-40.167h-112.968v-25.167h112.968z" fill="#000000" data-original="#000000" class=""></path></g></g></svg>