<svg xmlns="http://www.w3.org/2000/svg" version="1.1" xmlns:xlink="http://www.w3.org/1999/xlink" xmlns:svgjs="http://svgjs.com/svgjs" width="512" height="512" x="0" y="0" viewBox="0 0 512 512" style="enable-background:new 0 0 512 512" xml:space="preserve" class=""><g><g xmlns="http://www.w3.org/2000/svg"><path d="m55.597 247.468c17.396 0 31.548-14.152 31.548-31.548v-8.016c0-12.976-10.557-23.532-23.532-23.532h-16.032c-12.976 0-23.532 10.557-23.532 23.532v8.016c-.001 17.395 14.152 31.548 31.548 31.548zm-16.549-39.565c0-4.705 3.828-8.532 8.532-8.532h16.032c4.705 0 8.532 3.828 8.532 8.532v8.016c0 9.125-7.423 16.548-16.548 16.548s-16.548-7.423-16.548-16.548z" fill="#547a6e" data-original="#000000" class=""></path><path d="m91.92 258c-2.673-1.99-6.34-1.979-9 .031l-27.324 20.635-27.324-20.635c-2.661-2.009-6.326-2.021-9-.03-12.247 9.121-19.272 23-19.272 38.08v16.032c0 8.556 6.942 15.516 15.475 15.516h80.244c8.533 0 15.475-6.96 15.475-15.516v-16.032c-.001-15.08-7.026-28.959-19.274-38.081zm4.273 54.113c0 .294-.204.516-.475.516h-80.243c-.271 0-.475-.222-.475-.516v-16.032c0-8.46 3.258-16.381 9.089-22.412l26.987 20.38c2.675 2.021 6.365 2.021 9.04 0l26.987-20.38c5.831 6.03 9.089 13.951 9.089 22.412v16.032z" fill="#547a6e" data-original="#000000" class=""></path><path d="m496.484 192.387h-336.677c-8.556 0-15.516 6.96-15.516 15.516v24.048c0 8.556 6.96 15.516 15.516 15.516h336.677c8.556 0 15.516-6.96 15.516-15.516v-24.048c0-8.555-6.96-15.516-15.516-15.516zm.516 39.565c0 .285-.231.516-.516.516h-336.677c-.285 0-.516-.231-.516-.516v-24.048c0-.285.231-.516.516-.516h336.677c.285 0 .516.231.516.516z" fill="#547a6e" data-original="#000000" class=""></path><path d="m159.807 319.613h152.306c8.556 0 15.516-6.96 15.516-15.516v-24.048c0-8.556-6.96-15.516-15.516-15.516h-152.306c-8.556 0-15.516 6.96-15.516 15.516v24.048c0 8.555 6.96 15.516 15.516 15.516zm-.516-39.565c0-.285.231-.516.516-.516h152.306c.285 0 .516.231.516.516v24.048c0 .285-.231.516-.516.516h-152.306c-.285 0-.516-.231-.516-.516z" fill="#547a6e" data-original="#000000" class=""></path><path d="m55.597 423.823c17.396 0 31.548-14.152 31.548-31.548v-8.016c0-12.976-10.557-23.533-23.532-23.533h-16.032c-12.976 0-23.532 10.557-23.532 23.533v8.016c-.001 17.395 14.152 31.548 31.548 31.548zm-16.549-39.565c0-4.705 3.828-8.533 8.532-8.533h16.032c4.705 0 8.532 3.828 8.532 8.533v8.016c0 9.125-7.423 16.548-16.548 16.548s-16.548-7.423-16.548-16.548z" fill="#547a6e" data-original="#000000" class=""></path><path d="m91.92 434.355c-2.673-1.989-6.339-1.979-9 .031l-27.324 20.635-27.324-20.635c-2.661-2.009-6.326-2.021-9-.03-12.247 9.121-19.272 23-19.272 38.08v16.032c0 8.556 6.942 15.516 15.475 15.516h80.244c8.533 0 15.475-6.96 15.475-15.516v-16.032c-.001-15.08-7.026-28.959-19.274-38.081zm4.273 54.112c0 .294-.204.516-.475.516h-80.244c-.271 0-.475-.222-.475-.516v-16.032c0-8.46 3.258-16.381 9.089-22.412l26.987 20.38c2.675 2.021 6.365 2.021 9.04 0l26.987-20.38c5.831 6.03 9.089 13.951 9.089 22.412v16.032z" fill="#547a6e" data-original="#000000" class=""></path><path d="m424.339 368.742h-16.032c-4.142 0-7.5 3.358-7.5 7.5s3.358 7.5 7.5 7.5h16.032c.285 0 .516.232.516.517v24.048c0 .285-.231.516-.516.516h-264.532c-.285 0-.516-.231-.516-.516v-24.048c0-.285.231-.517.516-.517h216.435c4.142 0 7.5-3.358 7.5-7.5s-3.358-7.5-7.5-7.5h-216.435c-8.556 0-15.516 6.961-15.516 15.517v24.048c0 8.556 6.96 15.516 15.516 15.516h264.532c8.556 0 15.516-6.96 15.516-15.516v-24.048c0-8.556-6.96-15.517-15.516-15.517z" fill="#547a6e" data-original="#000000" class=""></path><path d="m199.887 440.887h-40.081c-8.556 0-15.516 6.96-15.516 15.516v24.048c0 8.556 6.96 15.516 15.516 15.516h40.081c8.556 0 15.516-6.96 15.516-15.516v-24.048c0-8.555-6.96-15.516-15.516-15.516zm.516 39.565c0 .285-.231.516-.516.516h-40.081c-.285 0-.516-.231-.516-.516v-24.048c0-.285.231-.516.516-.516h40.081c.285 0 .516.231.516.516z" fill="#547a6e" data-original="#000000" class=""></path><path d="m55.597 71.113c17.396 0 31.548-14.152 31.548-31.548v-8.016c0-12.976-10.557-23.532-23.532-23.532h-16.032c-12.976 0-23.532 10.557-23.532 23.532v8.016c-.001 17.395 14.152 31.548 31.548 31.548zm-16.549-39.565c0-4.705 3.828-8.532 8.532-8.532h16.032c4.705 0 8.532 3.828 8.532 8.532v8.016c0 9.125-7.423 16.548-16.548 16.548s-16.548-7.423-16.548-16.548z" fill="#547a6e" data-original="#000000" class=""></path><path d="m91.92 81.646c-2.673-1.99-6.339-1.979-9 .031l-27.324 20.635-27.324-20.636c-2.661-2.009-6.326-2.021-9-.03-12.247 9.121-19.272 23-19.272 38.08v16.033c0 8.556 6.942 15.516 15.475 15.516h80.244c8.533 0 15.475-6.96 15.475-15.516v-16.032c-.001-15.081-7.026-28.96-19.274-38.081zm4.273 54.112c0 .294-.204.516-.475.516h-80.244c-.271 0-.475-.222-.475-.516v-16.033c0-8.46 3.258-16.381 9.089-22.412l26.987 20.38c2.675 2.021 6.365 2.021 9.04 0l26.987-20.38c5.831 6.03 9.089 13.951 9.089 22.412v16.033z" fill="#547a6e" data-original="#000000" class=""></path><path d="m159.807 71.113h232.468c8.556 0 15.516-6.96 15.516-15.516v-24.049c0-8.556-6.96-15.516-15.516-15.516h-184.374c-4.142 0-7.5 3.358-7.5 7.5s3.358 7.5 7.5 7.5h184.373c.285 0 .516.231.516.516v24.048c0 .285-.231.516-.516.516h-232.467c-.285 0-.516-.231-.516-.516v-24.048c0-.285.231-.516.516-.516h16.036c4.142 0 7.5-3.358 7.5-7.5s-3.358-7.5-7.5-7.5h-16.036c-8.556 0-15.516 6.96-15.516 15.516v24.048c0 8.556 6.96 15.517 15.516 15.517z" fill="#547a6e" data-original="#000000" class=""></path><path d="m159.807 143.258h296.597c8.556 0 15.516-6.961 15.516-15.517v-24.048c0-8.556-6.96-15.516-15.516-15.516h-296.597c-8.556 0-15.516 6.96-15.516 15.516v24.048c0 8.556 6.96 15.517 15.516 15.517zm-.516-39.565c0-.285.231-.516.516-.516h296.597c.285 0 .516.231.516.516v24.048c0 .285-.231.517-.516.517h-296.597c-.285 0-.516-.232-.516-.517z" fill="#547a6e" data-original="#000000" class=""></path></g></g></svg>